<svg width="24" height="24" viewBox="0 0 24 24" fill="none" xmlns="http://www.w3.org/2000/svg">
<path fill-rule="evenodd" clip-rule="evenodd" d="M19 10.1988C18.9958 10.2665 18.9964 10.2838 18.986 10.3509C18.9628 10.5017 18.9117 10.6468 18.8367 10.7749C18.7988 10.8396 18.7547 10.8961 18.7077 10.9525L12.7074 17.6728C12.6631 17.7192 12.653 17.7321 12.6045 17.7733C12.5501 17.8195 12.4915 17.8594 12.4298 17.8923C12.1602 18.0359 11.8403 18.0359 11.5708 17.8923C11.5091 17.8594 11.4504 17.8195 11.396 17.7733C11.3476 17.7321 11.3375 17.7192 11.2932 17.6728L5.29291 10.9525C5.25151 10.9029 5.23991 10.8915 5.20321 10.8373C5.10675 10.6949 5.04165 10.5269 5.0145 10.3509C4.9952 10.2251 4.9952 10.0959 5.0145 9.97021C5.03 9.86968 5.0578 9.77162 5.0969 9.6795C5.24546 9.3296 5.55362 9.08599 5.89774 9.04634C6.03374 9.03071 6.17225 9.04667 6.30256 9.09299C6.41111 9.13157 6.51356 9.19099 6.60427 9.26805C6.65272 9.30921 6.66282 9.32215 6.70717 9.36852L12.0003 15.2968L17.2934 9.36852L17.3433 9.31632C17.3903 9.27348 17.4013 9.26127 17.4521 9.22398C17.5473 9.15403 17.6531 9.10251 17.7637 9.07232C17.8523 9.04818 17.9437 9.03766 18.0347 9.04113C18.3804 9.05434 18.7027 9.27387 18.8722 9.61157C18.928 9.72273 18.9667 9.84454 18.986 9.97021C18.9964 10.0373 18.9958 10.0545 19 10.1223C19 10.1478 19 10.1733 19 10.1988Z" fill="#161616"/>
</svg>
