<svg width="12" height="6" viewBox="0 0 12 6" fill="none" xmlns="http://www.w3.org/2000/svg">
<mask id="path-1-inside-1" fill="white">
<path d="M0 0L6 6L12 0"/>
</mask>
<path d="M0 0L6 6L12 0" fill="#767575"/>
<path d="M1.41421 -1.41421C0.633165 -2.19526 -0.633165 -2.19526 -1.41421 -1.41421C-2.19526 -0.633165 -2.19526 0.633165 -1.41421 1.41421L1.41421 -1.41421ZM6 6L4.58579 7.41421C5.36684 8.19526 6.63316 8.19526 7.41421 7.41421L6 6ZM13.4142 1.41421C14.1953 0.633165 14.1953 -0.633165 13.4142 -1.41421C12.6332 -2.19526 11.3668 -2.19526 10.5858 -1.41421L13.4142 1.41421ZM-1.41421 1.41421L4.58579 7.41421L7.41421 4.58579L1.41421 -1.41421L-1.41421 1.41421ZM7.41421 7.41421L13.4142 1.41421L10.5858 -1.41421L4.58579 4.58579L7.41421 7.41421Z" fill="#767575" mask="url(#path-1-inside-1)"/>
</svg>
