<svg width="9" height="15" viewBox="0 0 9 15" fill="none" xmlns="http://www.w3.org/2000/svg">
<path fill-rule="evenodd" clip-rule="evenodd" d="M1.15823 0.5C1.22599 0.50415 1.24324 0.50365 1.31033 0.51395C1.4612 0.537201 1.6063 0.588253 1.73432 0.663257C1.79906 0.701158 1.85557 0.745261 1.91202 0.792313L8.63231 6.79257C8.67868 6.83692 8.69161 6.84702 8.73277 6.89547C8.77898 6.94988 8.81891 7.00853 8.85178 7.07023C8.99537 7.33979 8.99537 7.65966 8.85178 7.92922C8.81891 7.99092 8.77898 8.04957 8.73277 8.10398C8.69161 8.15238 8.67868 8.16253 8.63231 8.20683L1.91202 14.2071C1.86234 14.2485 1.85098 14.2601 1.79677 14.2968C1.65441 14.3932 1.4864 14.4583 1.31033 14.4855C1.1846 14.5048 1.05541 14.5048 0.92968 14.4855C0.829156 14.47 0.731096 14.4422 0.638972 14.4031C0.289069 14.2545 0.0454584 13.9464 0.00580868 13.6023C-0.00981599 13.4663 0.00614516 13.3277 0.0524591 13.1974C0.0910448 13.0889 0.150463 12.9864 0.227522 12.8957C0.268684 12.8473 0.281621 12.8372 0.327991 12.7928L6.25629 7.4997L0.327991 2.20657L0.275797 2.15667C0.232955 2.10967 0.220746 2.09872 0.183449 2.04792C0.113502 1.95271 0.0619791 1.84686 0.0317938 1.73625C0.00765675 1.64775 -0.0028716 1.55635 0.000600548 1.46534C0.0138171 1.11958 0.233347 0.797312 0.571041 0.627755C0.682206 0.571953 0.804011 0.533301 0.92968 0.51395C0.996771 0.50365 1.01402 0.50415 1.08178 0.5C1.10726 0.5 1.13275 0.5 1.15823 0.5V0.5Z" fill="#161616"/>
</svg>
