<svg width="10" height="14" viewBox="0 0 10 14" fill="none" xmlns="http://www.w3.org/2000/svg">
<path fill-rule="evenodd" clip-rule="evenodd" d="M1.23782 14C1.30558 13.9958 1.32283 13.9964 1.38992 13.986C1.54079 13.9628 1.68589 13.9117 1.81391 13.8367C1.87865 13.7988 1.93516 13.7547 1.99161 13.7077L8.7119 7.70743C8.75827 7.66308 8.7712 7.65298 8.81236 7.60453C8.85857 7.55012 8.8985 7.49147 8.93137 7.42977C9.07496 7.16021 9.07496 6.84034 8.93137 6.57078C8.8985 6.50908 8.85857 6.45043 8.81236 6.39602C8.7712 6.34762 8.75827 6.33747 8.7119 6.29317L1.99161 0.292913C1.94193 0.251511 1.93057 0.23991 1.87636 0.203209C1.734 0.106755 1.56599 0.0416518 1.38992 0.0145006C1.26419 -0.00480021 1.135 -0.00480021 1.00927 0.0145006C0.908746 0.0300013 0.810686 0.0578025 0.718562 0.0969042C0.368659 0.245461 0.125049 0.553624 0.0853987 0.897738C0.0697737 1.03374 0.0857353 1.17225 0.132049 1.30256C0.170634 1.41111 0.230053 1.51356 0.307112 1.60427C0.348274 1.65272 0.361211 1.66282 0.40758 1.70717L6.33588 7.0003L0.40758 12.2934L0.355387 12.3433C0.312545 12.3903 0.300336 12.4013 0.263039 12.4521C0.193091 12.5473 0.141569 12.6531 0.111383 12.7637C0.0872469 12.8523 0.0767183 12.9437 0.0801907 13.0347C0.0934067 13.3804 0.312937 13.7027 0.650631 13.8722C0.761796 13.928 0.883601 13.9667 1.00927 13.986C1.07636 13.9964 1.09361 13.9958 1.16137 14C1.18685 14 1.21234 14 1.23782 14Z" fill="white"/>
</svg>
