<svg width="162" height="24" viewBox="0 0 162 24" fill="none" xmlns="http://www.w3.org/2000/svg">
<path d="M40.1459 1.96642L37.6084 5.66068C36.7629 5.31894 35.8599 5.14225 34.948 5.14016C34.4126 5.13873 33.8789 5.19938 33.3575 5.3209L33.1261 5.37873C32.3278 5.56185 31.5736 5.9009 30.9067 6.3764L30.6826 6.53545C30.0902 6.97118 29.5684 7.49542 29.1355 8.08978C27.4655 10.1863 26.2003 13.1504 24.0025 16.3097C23.7929 16.6278 23.5615 16.9531 23.2796 17.2712C21.5782 19.6417 19.3186 21.5562 16.7008 22.8451L16.2598 23.0476C15.8838 23.2066 15.5007 23.3512 15.1175 23.4741C14.8645 23.5464 14.6115 23.6187 14.3512 23.6765C13.6234 23.8528 12.88 23.9569 12.1318 23.9874H11.6618C9.75651 23.9922 7.87915 23.529 6.1948 22.6383C4.51044 21.7477 3.07064 20.4569 2.00197 18.8795C0.933299 17.3021 0.268469 15.4863 0.0659184 13.5918C-0.136632 11.6973 0.129299 9.78197 0.840336 8.01428C1.55137 6.24658 2.68575 4.68062 4.14375 3.45402C5.60174 2.22742 7.33873 1.37775 9.20202 0.979683C11.0653 0.58162 12.9979 0.647357 14.8298 1.17111C16.6617 1.69487 18.337 2.66061 19.7082 3.98345L17.1562 7.66325C16.3703 6.73708 15.3638 6.02386 14.2294 5.58944C13.0951 5.15502 11.8696 5.01341 10.6661 5.17769C9.46262 5.34196 8.31991 5.80682 7.3435 6.52935C6.3671 7.25187 5.58849 8.20877 5.07956 9.31167C4.57063 10.4146 4.34779 11.6279 4.43162 12.8397C4.51546 14.0515 4.90326 15.2226 5.55922 16.2449C6.21517 17.2672 7.11814 18.1078 8.18474 18.6889C9.25134 19.2701 10.4472 19.5732 11.6618 19.5702C11.8209 19.5702 11.9799 19.5702 12.1318 19.5702C13.1048 19.5095 14.0548 19.2486 14.9223 18.8039H14.9657C17.4454 17.6471 19.448 15.0951 22.8531 9.22481L23.2941 8.50186C24.4258 6.41851 25.9794 4.594 27.8558 3.14483L28.0727 2.99301C28.1595 2.92071 28.2535 2.85565 28.3475 2.79058C28.5716 2.63876 28.7957 2.5014 29.0126 2.37127C29.2294 2.24114 29.5692 2.06764 29.8367 1.93028L30.1042 1.80015C30.2343 1.74231 30.3645 1.67724 30.4946 1.62664L31.0079 1.41698C32.4898 0.888508 34.0634 0.665387 35.6338 0.761055C37.2043 0.856723 38.7391 1.2692 40.1459 1.97365V1.96642Z" fill="white"/>
<path d="M46.544 10.1502V12.3696C46.5465 12.7656 46.5272 13.1614 46.4861 13.5553C46.4543 13.8928 46.4036 14.2283 46.3343 14.5602C45.9453 16.5928 45.0207 18.4847 43.6561 20.0406C42.2914 21.5964 40.5361 22.7598 38.5716 23.4105C36.607 24.0611 34.5043 24.1756 32.4807 23.7419C30.4571 23.3083 28.586 22.3423 27.0605 20.9438L29.5981 17.2495C30.4546 18.18 31.5403 18.8695 32.7467 19.2492C33.953 19.6289 35.2379 19.6855 36.4729 19.4133C37.708 19.1411 38.8501 18.5497 39.7851 17.6981C40.7201 16.8465 41.4154 15.7645 41.8014 14.5602H34.572L37.5939 10.1574L46.544 10.1502Z" fill="white"/>
<path d="M72.3894 9.99112C72.042 9.66345 71.6332 9.40785 71.1864 9.23909C70.7397 9.07033 70.264 8.99176 69.7868 9.00791C69.3683 8.9872 68.9501 9.05437 68.5592 9.20509C68.1683 9.35581 67.8133 9.58673 67.517 9.88299C67.2208 10.1792 66.9898 10.5343 66.8391 10.9252C66.6884 11.3161 66.6212 11.7343 66.6419 12.1527C66.6336 12.5776 66.7125 12.9997 66.8737 13.3929C67.0349 13.7861 67.2751 14.1421 67.5793 14.4389C67.8835 14.7356 68.2453 14.9669 68.6424 15.1183C69.0395 15.2697 69.4634 15.3381 69.888 15.3192C70.8072 15.3178 71.6913 14.9662 72.3604 14.336V17.4013C71.4674 17.8679 70.4762 18.1157 69.4687 18.1243C67.8694 18.1557 66.3184 17.5766 65.131 16.5049C64.5552 15.9548 64.1003 15.2907 63.7954 14.5551C63.4904 13.8195 63.3421 13.0284 63.3598 12.2323C63.3204 11.432 63.4491 10.6323 63.7375 9.88474C64.0259 9.13717 64.4675 8.45826 65.0341 7.89168C65.6007 7.32511 66.2796 6.88343 67.0272 6.59506C67.7747 6.30669 68.5744 6.17802 69.3747 6.21733C70.4176 6.20141 71.4499 6.42915 72.3894 6.88244V9.99112Z" fill="white"/>
<path d="M85.7277 7.80061C86.3218 8.36149 86.795 9.03777 87.1185 9.788C87.4419 10.5382 87.6087 11.3466 87.6087 12.1636C87.6087 12.9806 87.4419 13.789 87.1185 14.5392C86.795 15.2894 86.3218 15.9657 85.7277 16.5266C84.4473 17.5478 82.858 18.1039 81.2202 18.1039C79.5823 18.1039 77.9931 17.5478 76.7126 16.5266C76.1185 15.9657 75.6453 15.2894 75.3219 14.5392C74.9984 13.789 74.8316 12.9806 74.8316 12.1636C74.8316 11.3466 74.9984 10.5382 75.3219 9.788C75.6453 9.03777 76.1185 8.36149 76.7126 7.80061C77.9931 6.77944 79.5823 6.22331 81.2202 6.22331C82.858 6.22331 84.4473 6.77944 85.7277 7.80061ZM84.3614 12.1744C84.3614 11.5525 84.1769 10.9444 83.8314 10.4273C83.4858 9.91011 82.9947 9.50703 82.42 9.26901C81.8454 9.03098 81.213 8.96871 80.603 9.09005C79.993 9.21139 79.4326 9.51091 78.9928 9.95072C78.553 10.3905 78.2535 10.9509 78.1321 11.5609C78.0108 12.171 78.0731 12.8033 78.3111 13.3779C78.5491 13.9526 78.9522 14.4437 79.4694 14.7893C79.9865 15.1348 80.5946 15.3193 81.2165 15.3193C81.6309 15.3241 82.042 15.2461 82.4257 15.0898C82.8095 14.9334 83.1581 14.702 83.4511 14.409C83.7441 14.116 83.9755 13.7674 84.1318 13.3836C84.2882 12.9999 84.3662 12.5888 84.3614 12.1744Z" fill="white"/>
<path d="M92.2415 0C92.6133 0 92.9767 0.11024 93.2858 0.31678C93.5949 0.52332 93.8358 0.816884 93.9781 1.16035C94.1204 1.50381 94.1576 1.88175 94.0851 2.24637C94.0126 2.61098 93.8335 2.94591 93.5707 3.20878C93.3078 3.47166 92.9729 3.65068 92.6082 3.72321C92.2436 3.79573 91.8657 3.75851 91.5222 3.61624C91.1788 3.47398 90.8852 3.23306 90.6787 2.92395C90.4721 2.61484 90.3619 2.25142 90.3619 1.87966C90.3638 1.38173 90.5624 0.904738 90.9145 0.552644C91.2666 0.200551 91.7436 0.00190416 92.2415 0ZM93.8103 6.58605V17.7339H90.6655V6.58605H93.8103Z" fill="white"/>
<path d="M97.4395 6.58606H100.577V8.03195C100.957 7.46606 101.472 7.00379 102.075 6.68695C102.679 6.37012 103.351 6.20872 104.033 6.21736C104.647 6.1932 105.259 6.30216 105.826 6.53677C106.394 6.77138 106.904 7.12607 107.322 7.5765C107.98 8.48657 108.291 9.60219 108.197 10.7213V17.7194H105.059V11.6467C105.129 10.876 104.919 10.106 104.467 9.47785C104.275 9.29304 104.048 9.14806 103.8 9.05127C103.552 8.95449 103.287 8.90781 103.021 8.91395C102.642 8.8935 102.264 8.97287 101.925 9.14414C101.586 9.31541 101.299 9.57257 101.09 9.88993C100.717 10.5487 100.546 11.3032 100.599 12.0588V17.7484H97.4612L97.4395 6.58606Z" fill="white"/>
<path d="M120.328 6.58606H123.466V17.2206C123.466 18.9195 123.314 20.698 121.926 22.086C121.334 22.6353 120.636 23.0579 119.876 23.3276C119.115 23.5974 118.307 23.7088 117.501 23.6548C115.332 23.6548 114.046 23.0114 113.33 22.368C112.395 21.478 111.763 20.3175 111.523 19.0497H114.928C115.047 19.5609 115.313 20.0259 115.694 20.3871C116.233 20.8167 116.915 21.0282 117.603 20.9799C117.951 20.9908 118.299 20.9325 118.625 20.8085C118.952 20.6844 119.25 20.497 119.504 20.257C119.81 19.928 120.043 19.537 120.185 19.1104C120.327 18.6838 120.376 18.2316 120.328 17.7845V16.2446C119.969 16.8261 119.463 17.3031 118.862 17.6278C118.261 17.9526 117.584 18.1138 116.901 18.0954C116.189 18.1158 115.479 17.9918 114.816 17.7309C114.152 17.47 113.549 17.0776 113.041 16.5772C112.463 15.9964 112.008 15.3055 111.703 14.5454C111.397 13.7854 111.247 12.9717 111.262 12.1527C111.245 11.3367 111.388 10.5252 111.685 9.76472C111.981 9.00424 112.425 8.30976 112.99 7.72109C114.023 6.73593 115.402 6.19591 116.829 6.21735C117.519 6.1822 118.206 6.3302 118.821 6.64634C119.435 6.96249 119.955 7.43553 120.328 8.01749V6.58606ZM115.513 9.78148C115.037 10.2082 114.7 10.7689 114.548 11.3901C114.396 12.0113 114.435 12.664 114.66 13.2626C114.885 13.8613 115.286 14.378 115.809 14.745C116.333 15.112 116.956 15.3122 117.595 15.3193C118.358 15.3202 119.094 15.0454 119.67 14.5457C119.991 14.2358 120.246 13.8639 120.419 13.4525C120.591 13.0411 120.679 12.5989 120.675 12.1527C120.682 11.3156 120.357 10.5098 119.771 9.91161C119.493 9.6176 119.156 9.38524 118.783 9.22957C118.409 9.07391 118.007 8.9984 117.603 9.00793C116.833 8.98806 116.085 9.26502 115.513 9.78148Z" fill="white"/>
<path d="M135.647 6.58606H138.785V17.7339H135.647V16.288C135.274 16.8527 134.764 17.3139 134.165 17.6286C133.566 17.9434 132.897 18.1014 132.22 18.0881C128.794 18.0881 126.531 15.4132 126.531 12.1455C126.531 8.8778 128.772 6.22458 132.069 6.22458C132.77 6.18701 133.469 6.33334 134.097 6.64908C134.725 6.96481 135.259 7.43901 135.647 8.02472V6.58606ZM129.791 12.1527C129.803 12.7607 129.993 13.3518 130.339 13.8517C130.685 14.3517 131.171 14.7384 131.736 14.9632C132.301 15.188 132.92 15.2409 133.515 15.1154C134.11 14.9898 134.655 14.6913 135.081 14.2574C135.507 13.8235 135.795 13.2734 135.91 12.6762C136.024 12.079 135.96 11.4613 135.724 10.9006C135.489 10.3399 135.093 9.86115 134.587 9.52443C134.081 9.18772 133.486 9.00804 132.878 9.00793C132.467 9.00387 132.059 9.08288 131.679 9.24023C131.299 9.39757 130.954 9.63001 130.666 9.92363C130.378 10.2173 130.152 10.566 130.001 10.949C129.851 11.3321 129.78 11.7415 129.791 12.1527Z" fill="white"/>
<path d="M145.559 9.26817V17.7339H142.414V9.26817H141.178V6.58604H142.414V2.77611H145.559V6.58604H147.728V9.26817H145.559Z" fill="white"/>
<path d="M160.95 14.6252C160.618 15.4494 159.353 18.0954 155.47 18.0954C154.689 18.1343 153.908 18.0155 153.174 17.746C152.44 17.4764 151.768 17.0617 151.198 16.5266C150.611 15.972 150.15 15.2976 149.847 14.5491C149.544 13.8006 149.405 12.9956 149.441 12.1889C149.412 11.382 149.548 10.5776 149.841 9.82541C150.135 9.07318 150.579 8.38901 151.147 7.81506C151.704 7.28395 152.363 6.87113 153.083 6.6015C153.804 6.33187 154.572 6.21103 155.34 6.24626C156.154 6.19874 156.969 6.33821 157.72 6.654C158.472 6.96979 159.142 7.45351 159.678 8.06809C160.628 9.32431 161.102 10.8766 161.015 12.4491V12.7239H152.687C152.672 13.3911 152.861 14.047 153.229 14.6035C153.487 14.9499 153.827 15.2274 154.218 15.4115C154.609 15.5956 155.039 15.6806 155.47 15.659C155.993 15.6754 156.511 15.5495 156.968 15.2949C157.425 15.0402 157.804 14.6664 158.066 14.2131L160.95 14.6252ZM158.059 10.6852C157.955 10.0603 157.633 9.49249 157.149 9.0829C156.666 8.67332 156.053 8.44852 155.42 8.44852C154.786 8.44852 154.173 8.67332 153.69 9.0829C153.207 9.49249 152.885 10.0603 152.781 10.6852H158.059Z" fill="white"/>
</svg>
