<svg width="24" height="24" viewBox="0 0 24 24" fill="none" xmlns="http://www.w3.org/2000/svg">
<path d="M21 12C21 13.1819 20.7672 14.3522 20.3149 15.4442C19.8626 16.5361 19.1997 17.5282 18.364 18.364C17.5282 19.1997 16.5361 19.8626 15.4442 20.3149C14.3522 20.7672 13.1819 21 12 21C10.8181 21 9.64778 20.7672 8.55585 20.3149C7.46392 19.8626 6.47177 19.1997 5.63604 18.364C4.80031 17.5282 4.13738 16.5361 3.68508 15.4442C3.23279 14.3522 3 13.1819 3 12C3 9.61305 3.94821 7.32387 5.63604 5.63604C7.32387 3.94821 9.61305 3 12 3C14.3869 3 16.6761 3.94821 18.364 5.63604C20.0518 7.32387 21 9.61305 21 12Z" stroke="#D2D1D1" stroke-width="1.5" stroke-linecap="round" stroke-linejoin="round"/>
<path d="M15.5925 13.7012C15.2226 13.5113 14.7728 13.6562 14.5828 14.0211C14.2079 14.7459 13.4681 15.2708 12.6434 15.4407L14.4979 9.87233C14.5228 9.91732 14.5528 9.9673 14.5778 10.0173C14.7628 10.3872 15.2126 10.5421 15.5825 10.3522C15.9524 10.1672 16.1024 9.71737 15.9224 9.34748C15.7025 8.90761 15.4126 8.51772 15.0627 8.18781L15.4626 6.98816C15.5925 6.59327 15.3826 6.16839 14.9877 6.03843C14.5978 5.90847 14.1729 6.11841 14.038 6.51329L13.7631 7.33806C13.4981 7.22809 13.2182 7.13811 12.9283 7.08313L12.9583 6.98816C13.0883 6.59327 12.8783 6.16839 12.4834 6.03843C12.0935 5.90847 11.6637 6.11841 11.5337 6.51329L11.3737 6.99815H11.2238C8.89446 7.00315 7 8.89761 7 11.2269V12.7715C7 14.0161 7.54484 15.1408 8.4046 15.9156L8.0397 17.0103C7.90974 17.4052 8.11968 17.83 8.51457 17.96C8.59454 17.985 8.67452 18 8.7495 18C9.06441 18 9.35433 17.8001 9.4593 17.4851L9.71422 16.7204C9.98414 16.8253 10.2641 16.9003 10.559 16.9453L10.539 17.0103C10.409 17.4052 10.619 17.83 11.0138 17.96C11.0938 17.985 11.1738 18 11.2488 18C11.5637 18 11.8536 17.8001 11.9586 17.4851L12.1235 16.9953C13.7181 16.9803 15.2026 16.0855 15.9124 14.7059C16.1024 14.3361 15.9574 13.8862 15.5925 13.6962V13.7012ZM8.49957 12.7715V11.2269C8.49957 9.84734 9.53427 8.70267 10.8689 8.52272L8.95444 14.2711C8.66952 13.8412 8.50457 13.3263 8.50457 12.7715H8.49957ZM10.1891 15.2958L12.4484 8.52772C12.7434 8.5677 13.0233 8.64768 13.2882 8.77265L11.0488 15.4957C10.7489 15.4757 10.464 15.4057 10.1941 15.2958H10.1891Z" fill="#D2D1D1"/>
</svg>
