<svg width="26" height="26" viewBox="0 0 26 26" fill="none" xmlns="http://www.w3.org/2000/svg">
<path d="M13 25C19.6274 25 25 19.6274 25 13C25 6.37258 19.6274 1 13 1C6.37258 1 1 6.37258 1 13C1 19.6274 6.37258 25 13 25Z" fill="white" stroke="#002EA3" stroke-linecap="round" stroke-linejoin="round"/>
<path d="M14.3886 5.67399C14.3886 5.43399 14.4726 5.22999 14.6406 5.06199C14.8086 4.88199 15.0126 4.79199 15.2526 4.79199C15.4926 4.79199 15.6966 4.88199 15.8646 5.06199C16.0446 5.22999 16.1346 5.43399 16.1346 5.67399C16.1346 5.91399 16.0446 6.11799 15.8646 6.28599C15.6966 6.45399 15.4926 6.53799 15.2526 6.53799C15.0126 6.53799 14.8086 6.45399 14.6406 6.28599C14.4726 6.11799 14.3886 5.91399 14.3886 5.67399ZM13.2726 11.776C13.4166 11.464 13.5126 11.218 13.5606 11.038C13.6206 10.858 13.6506 10.732 13.6506 10.66C13.6506 10.504 13.5906 10.426 13.4706 10.426C13.4106 10.426 13.3086 10.48 13.1646 10.588C13.0326 10.696 12.8826 10.834 12.7146 11.002C12.5466 11.17 12.3726 11.362 12.1926 11.578C12.0126 11.794 11.8446 12.016 11.6886 12.244L11.2746 11.974C11.4786 11.662 11.7366 11.32 12.0486 10.948C12.3606 10.576 12.6606 10.264 12.9486 10.012C13.2246 9.77199 13.4826 9.60399 13.7226 9.50799C13.9626 9.41199 14.1726 9.36399 14.3526 9.36399C14.5566 9.36399 14.7306 9.43599 14.8746 9.57999C15.0306 9.72399 15.1086 9.93399 15.1086 10.21C15.1086 10.39 15.0546 10.63 14.9466 10.93C14.8386 11.23 14.7306 11.494 14.6226 11.722L12.6966 15.826C12.6366 15.946 12.5886 16.078 12.5526 16.222C12.5166 16.354 12.5526 16.42 12.6606 16.42C12.7566 16.42 12.8826 16.378 13.0386 16.294C13.1946 16.198 13.3566 16.084 13.5246 15.952C13.6926 15.808 13.8546 15.658 14.0106 15.502C14.1786 15.334 14.3166 15.184 14.4246 15.052L14.8386 15.358C14.7066 15.538 14.5206 15.754 14.2806 16.006C14.0526 16.258 13.7886 16.498 13.4886 16.726C13.2006 16.954 12.8886 17.152 12.5526 17.32C12.2286 17.476 11.9166 17.554 11.6166 17.554C11.4246 17.554 11.2686 17.506 11.1486 17.41C11.0406 17.302 10.9866 17.164 10.9866 16.996C10.9866 16.924 10.9986 16.828 11.0226 16.708C11.0586 16.576 11.1066 16.444 11.1666 16.312L13.2726 11.776Z" fill="#002EA3"/>
</svg>
