<svg width="32" height="32" viewBox="0 0 32 32" fill="none" xmlns="http://www.w3.org/2000/svg">
<path fill-rule="evenodd" clip-rule="evenodd" d="M15.9989 4.19352C19.8439 4.19352 20.2993 4.20821 21.8178 4.27749C23.2218 4.34157 23.9842 4.5761 24.4917 4.77331C25.1171 5.00415 25.6829 5.37224 26.1474 5.8505C26.6257 6.31499 26.9937 6.88077 27.2246 7.50623C27.4218 8.01364 27.6564 8.77611 27.7204 10.1801C27.7897 11.6986 27.8044 12.154 27.8044 15.9991C27.8044 19.8442 27.7897 20.2995 27.7204 21.8181C27.6563 23.222 27.4217 23.9844 27.2246 24.4919C26.985 25.113 26.6181 25.677 26.1474 26.1477C25.6767 26.6183 25.1127 26.9853 24.4917 27.2248C23.9843 27.422 23.2218 27.6566 21.8178 27.7207C20.2997 27.7899 19.8443 27.8046 15.9989 27.8046C12.1536 27.8046 11.6983 27.7899 10.18 27.7207C8.77601 27.6566 8.0136 27.422 7.50613 27.2248C6.88067 26.994 6.31491 26.6259 5.85042 26.1476C5.37216 25.6832 5.00408 25.1174 4.77323 24.4919C4.57603 23.9845 4.34144 23.222 4.27742 21.8181C4.20814 20.2996 4.19345 19.8442 4.19345 15.9991C4.19345 12.154 4.20814 11.6987 4.27742 10.1801C4.3415 8.77611 4.57603 8.0137 4.77323 7.50623C5.0041 6.88073 5.37222 6.31494 5.85053 5.85045C6.31502 5.37218 6.88079 5.0041 7.50624 4.77325C8.01366 4.57604 8.77612 4.34146 10.1801 4.27744C11.6986 4.20816 12.154 4.19347 15.999 4.19347L15.9989 4.19352ZM15.9989 1.59888C12.0882 1.59888 11.5977 1.61545 10.062 1.68553C8.52924 1.7555 7.48252 1.99889 6.56658 2.35489C5.60575 2.71647 4.73535 3.28328 4.01609 4.01581C3.2834 4.73504 2.71643 5.60545 2.35472 6.56633C1.99901 7.48233 1.75562 8.52906 1.68594 10.0618C1.61558 11.5975 1.599 12.0881 1.599 15.9989C1.599 19.9097 1.61558 20.4003 1.68594 21.936C1.7559 23.4687 1.99929 24.5155 2.35529 25.4314C2.71687 26.3923 3.28368 27.2627 4.0162 27.9819C4.73547 28.7145 5.60586 29.2813 6.5667 29.6429C7.48269 29.9989 8.52942 30.2423 10.0621 30.3122C11.598 30.3823 12.0884 30.3989 15.9991 30.3989C19.9099 30.3989 20.4005 30.3823 21.9362 30.3122C23.4689 30.2423 24.5156 29.9989 25.4316 29.6429C26.3881 29.2729 27.2569 28.7072 27.9821 27.982C28.7073 27.2567 29.273 26.388 29.643 25.4314C29.999 24.5154 30.2424 23.4687 30.3123 21.936C30.3824 20.4001 30.399 19.9097 30.399 15.9989C30.399 12.0881 30.3824 11.5975 30.3123 10.0618C30.2424 8.52906 29.999 7.48233 29.643 6.56639C29.2814 5.60554 28.7146 4.73514 27.9821 4.01587C27.2628 3.28319 26.3923 2.71626 25.4314 2.3546C24.5154 1.99889 23.4687 1.7555 21.9359 1.68582C20.4003 1.61545 19.9097 1.59888 15.9989 1.59888ZM15.9988 8.60422C14.5363 8.60422 13.1066 9.03791 11.8906 9.85044C10.6746 10.663 9.72681 11.8179 9.16713 13.169C8.60746 14.5202 8.46102 16.007 8.74634 17.4415C9.03166 18.8759 9.73592 20.1935 10.7701 21.2276C11.8042 22.2618 13.1218 22.9661 14.5562 23.2514C15.9906 23.5367 17.4774 23.3903 18.8286 22.8306C20.1798 22.2709 21.3346 21.3231 22.1472 20.1071C22.9597 18.891 23.3934 17.4614 23.3934 15.9988C23.3934 14.0377 22.6143 12.1568 21.2276 10.7701C19.8408 9.3833 17.96 8.60422 15.9988 8.60422ZM15.9988 20.7988C15.0495 20.7988 14.1215 20.5173 13.3321 19.9898C12.5428 19.4624 11.9276 18.7128 11.5643 17.8357C11.201 16.9586 11.106 15.9935 11.2912 15.0624C11.4764 14.1313 11.9335 13.276 12.6048 12.6047C13.2761 11.9334 14.1314 11.4763 15.0625 11.2911C15.9936 11.1059 16.9587 11.201 17.8357 11.5643C18.7128 11.9276 19.4625 12.5428 19.9899 13.3321C20.5173 14.1215 20.7988 15.0495 20.7988 15.9988C20.7988 17.2719 20.2931 18.4928 19.3929 19.3929C18.4927 20.2931 17.2718 20.7988 15.9988 20.7988ZM25.4143 8.31123C25.4143 9.26557 24.6407 10.0392 23.6863 10.0392C22.732 10.0392 21.9584 9.26557 21.9584 8.31123C21.9584 7.35689 22.732 6.58325 23.6863 6.58325C24.6407 6.58325 25.4143 7.35689 25.4143 8.31123Z" fill="#D2D1D1"/>
</svg>
