<svg width="24" height="24" viewBox="0 0 24 24" fill="none" xmlns="http://www.w3.org/2000/svg">
<path fill-rule="evenodd" clip-rule="evenodd" d="M17.24 3C15.2912 3 13.4208 3.81 12.2 5.09C10.9792 3.81 9.1088 3 7.16 3C3.7104 3 1 5.42 1 8.5C1 12.28 4.808 15.36 10.576 20.04L12.2 21.35L13.824 20.03C19.592 15.36 23.4 12.28 23.4 8.5C23.4 5.42 20.6896 3 17.24 3ZM12.3103 18.55L12.1983 18.65L12.0863 18.55C6.75508 14.24 3.23828 11.39 3.23828 8.5C3.23828 6.5 4.91828 5 7.15828 5C8.88308 5 10.5631 5.99 11.1567 7.36H13.2511C13.8335 5.99 15.5135 5 17.2383 5C19.4783 5 21.1583 6.5 21.1583 8.5C21.1583 11.39 17.6415 14.24 12.3103 18.55Z" fill="#D2D1D1"/>
</svg>
