<svg width="32" height="32" viewBox="0 0 32 32" fill="none" xmlns="http://www.w3.org/2000/svg">
<path d="M28.239 1.59891H3.759C2.607 1.59891 1.599 2.4672 1.599 3.62499V28.3728C1.599 29.5306 2.607 30.3989 3.759 30.3989H28.239C29.391 30.3989 30.399 29.5306 30.399 28.3728V3.62499C30.399 2.61192 29.391 1.59891 28.239 1.59891ZM10.095 26.3466H5.775V12.5979H10.095V26.3466ZM7.935 10.5717C6.495 10.5717 5.487 9.41399 5.487 8.11147C5.487 6.80896 6.639 5.65116 7.935 5.65116C9.231 5.65116 10.383 6.80896 10.383 8.11147C10.527 9.55871 9.375 10.5717 7.935 10.5717ZM26.079 26.3466H21.759V19.6894C21.759 18.0974 21.759 16.0713 19.599 16.0713C17.439 16.0713 17.007 17.808 17.007 19.6894V26.4913H12.687V12.7426H16.719V14.624C17.295 13.4662 18.735 12.4532 20.751 12.4532C25.071 12.4532 25.935 15.3477 25.935 18.9657V26.3466H26.079Z" fill="#D2D1D1"/>
</svg>
