<svg width="200" height="32" viewBox="0 0 200 32" fill="none" xmlns="http://www.w3.org/2000/svg">
<g clip-path="url(#clip0_163_1223)">
<g clip-path="url(#clip1_163_1223)">
<path d="M139.458 9.90369L138.112 11.207L136.262 27.8982H142.611L140.803 11.207L139.458 9.90369Z" fill="#26272D"/>
<path d="M139.458 11.9218C141.501 11.9218 143.157 10.2653 143.157 8.22197C143.157 6.17862 141.501 4.52216 139.458 4.52216C137.414 4.52216 135.758 6.17862 135.758 8.22197C135.758 10.2653 137.414 11.9218 139.458 11.9218Z" fill="#26272D"/>
<path d="M23.0818 26.3006C22.8295 25.9643 22.5773 25.5018 22.325 24.9552L13.538 4.56421H11.8562L3.61573 24.3666C3.32143 25.0393 3.02713 25.5859 2.64874 26.0483C2.27035 26.5108 1.76583 26.7631 1.17722 26.8472L0.294312 26.9312V28.0244H7.44167V26.9312L6.47468 26.8472C6.05424 26.8051 5.7179 26.721 5.46564 26.5529C5.21338 26.4267 5.08725 26.1324 5.08725 25.712C5.08725 25.5438 5.12929 25.2916 5.21338 25.0393C5.29746 24.787 5.38155 24.4927 5.50768 24.1564L7.14737 20.0361H16.3969L18.0366 23.9041C18.2888 24.5348 18.415 25.0813 18.415 25.5018C18.415 26.3006 17.8684 26.7631 16.7332 26.8051L15.6401 26.8892V27.9823H25.4782V26.8892L24.4272 26.8051C23.7545 26.8051 23.334 26.6369 23.0818 26.3006ZM7.77802 18.6067L11.604 9.10489L15.8083 18.6067H7.77802Z" fill="#26272D"/>
<path d="M54.5301 26.4688C54.0677 26.2586 53.5631 25.8381 53.0586 25.2075C52.9325 25.0393 52.7643 24.8711 52.6802 24.703C52.5541 24.5348 52.428 24.2825 52.2598 24.0303C52.0916 23.778 51.9235 23.4837 51.7132 23.1474C51.503 22.811 51.2087 22.3906 50.9144 21.8861C50.494 21.2134 50.0735 20.6248 49.6952 20.1203C49.3168 19.6157 48.9804 19.1953 48.6441 18.859C48.3077 18.5226 48.0134 18.1863 47.6771 17.934C47.3828 17.6817 47.0464 17.4715 46.7521 17.2613C47.0044 17.1772 47.4248 17.009 48.0555 16.7568C48.6861 16.5045 49.3588 16.1261 50.0315 15.6216C50.7042 15.1171 51.2928 14.5285 51.7973 13.7717C52.3018 13.0149 52.5541 12.132 52.5541 11.123C52.5541 9.90373 52.3018 8.93673 51.7553 8.09587C51.2087 7.29704 50.536 6.62435 49.6952 6.16187C48.8543 5.6994 47.9293 5.32101 46.9203 5.11079C45.9113 4.90057 44.9863 4.77444 44.0193 4.77444H33.5085V5.86757L34.938 5.95166C35.5266 5.9937 35.947 6.11983 36.1993 6.33005C36.4515 6.54026 36.5356 7.00274 36.5356 7.71748V25.0814C36.5356 25.7961 36.4095 26.2586 36.1993 26.4688C35.947 26.679 35.5686 26.8051 34.938 26.8472L33.5085 26.9313V28.0244H42.9682V26.9313L41.5388 26.8472C40.9502 26.8051 40.5297 26.679 40.2775 26.4688C40.0252 26.2586 39.9411 25.8802 39.9411 25.2495V18.0181H40.4456C41.2865 18.0181 42.0433 18.1442 42.6739 18.3965C43.3046 18.6487 43.8511 18.9851 44.3557 19.4055C44.8602 19.8259 45.2806 20.2884 45.659 20.835C46.0374 21.3815 46.4578 21.8861 46.8362 22.4747L50.6622 28.1085H56.7584V26.9733L56.0857 26.8892C55.5392 26.8051 54.9926 26.679 54.5301 26.4688ZM44.4818 16.3364C43.725 16.5045 43.0103 16.6307 42.3376 16.6307H39.9411V6.11983H42.716C44.6079 6.11983 46.1215 6.49822 47.2566 7.29704C48.3918 8.09587 48.9384 9.39921 48.9384 11.2491C48.9384 12.2582 48.7282 13.099 48.2657 13.7717C47.8453 14.4444 47.2987 14.991 46.626 15.4534C45.9533 15.8318 45.2806 16.1261 44.4818 16.3364Z" fill="#26272D"/>
<path d="M83.7923 3.93356C82.9094 4.48013 81.8583 4.77443 80.6391 4.77443H67.1011C65.8819 4.77443 64.8308 4.48013 63.9479 3.93356L63.2332 4.31195L61.6776 10.5764L62.7286 11.0389C63.0229 10.4923 63.3593 9.90371 63.6956 9.35715C64.032 8.76854 64.4524 8.26402 64.999 7.7595C65.5035 7.29703 66.1341 6.87659 66.8909 6.58229C67.6477 6.28799 68.5306 6.11981 69.6658 6.11981H72.2304V24.9552C72.2304 25.67 72.1043 26.1324 71.852 26.3847C71.5998 26.6369 71.1793 26.8051 70.5907 26.8472L68.867 26.9733V28.0664H79.2096V26.9733L77.2336 26.8892C76.645 26.8472 76.2245 26.679 75.9723 26.4267C75.72 26.1745 75.6359 25.67 75.6359 24.9552V6.11981H78.2426C79.3357 6.11981 80.2607 6.28799 81.0175 6.58229C81.7743 6.87659 82.3629 7.29703 82.9094 7.7595C83.4139 8.22198 83.8344 8.76854 84.2128 9.35715C84.5912 9.94576 84.8855 10.4923 85.1798 11.0389L86.2308 10.5764L84.6752 4.31195L83.7923 3.93356Z" fill="#26272D"/>
<path d="M92.8737 4.73239H95.8587L102.291 23.5257L108.43 4.73239H111.373L117.511 23.5257L123.944 4.73239H126.929L118.941 27.8983H116.334L109.901 8.1379L103.427 27.8983H100.82L92.8737 4.73239Z" fill="#26272D"/>
<path d="M154.383 4.73239H162.161C169.477 4.73239 174.606 9.48329 174.606 16.2102C174.606 22.9371 169.434 27.7301 162.161 27.7301H154.383V4.73239ZM162.161 25.3757C167.921 25.3757 171.999 21.5918 171.999 16.2102C171.999 10.8707 167.963 7.08682 162.161 7.08682H156.99V25.3757H162.161Z" fill="#26272D"/>
<path d="M185.915 7.21295V14.7807H198.402V17.2613H185.915V25.2916H199.79V27.7721H183.267V4.73239H199.79V7.21295H185.915Z" fill="#26272D"/>
</g>
</g>
<defs>
<clipPath id="clip0_163_1223">
<rect width="200" height="32" fill="#26272D"/>
</clipPath>
<clipPath id="clip1_163_1223">
<rect width="200" height="24.1329" fill="#26272D" transform="translate(0 3.93356)"/>
</clipPath>
</defs>
</svg>
