<svg width="25" height="24" viewBox="0 0 25 24" fill="none" xmlns="http://www.w3.org/2000/svg">
<path d="M3.98047 20H3.23047V20.75H3.98047V20ZM21.9005 20V20.75H22.6505V20H21.9005ZM12.9409 12.75C15.7482 12.75 18.1709 10.7019 18.1709 8H16.6709C16.6709 9.71812 15.0841 11.25 12.9409 11.25V12.75ZM18.1709 8C18.1709 5.29812 15.7482 3.25 12.9409 3.25V4.75C15.0841 4.75 16.6709 6.28188 16.6709 8H18.1709ZM12.9409 3.25C10.1337 3.25 7.71094 5.29812 7.71094 8H9.21094C9.21094 6.28188 10.7978 4.75 12.9409 4.75V3.25ZM7.71094 8C7.71094 10.7019 10.1337 12.75 12.9409 12.75V11.25C10.7978 11.25 9.21094 9.71812 9.21094 8H7.71094ZM12.9405 13.25C11.3621 13.25 9.0364 13.5989 7.08648 14.2963C6.11259 14.6447 5.18303 15.0971 4.48298 15.674C3.78293 16.2509 3.23047 17.0253 3.23047 18H4.73047C4.73047 17.6447 4.92421 17.2541 5.43691 16.8316C5.94961 16.4091 6.69935 16.0278 7.59166 15.7087C9.37414 15.0711 11.5285 14.75 12.9405 14.75V13.25ZM3.23047 18V20H4.73047V18H3.23047ZM3.98047 20.75H21.9005V19.25H3.98047V20.75ZM22.6505 20V18H21.1505V20H22.6505ZM22.6505 18C22.6505 17.0253 22.098 16.2509 21.398 15.674C20.6979 15.0971 19.7683 14.6447 18.7945 14.2963C16.8445 13.5989 14.5189 13.25 12.9405 13.25V14.75C14.3525 14.75 16.5068 15.0711 18.2893 15.7087C19.1816 16.0278 19.9313 16.4091 20.444 16.8316C20.9567 17.2541 21.1505 17.6447 21.1505 18H22.6505Z" fill="#26272D"/>
</svg>
