<?xml version="1.0" standalone="no"?>
<!DOCTYPE svg PUBLIC "-//W3C//DTD SVG 20010904//EN"
 "http://www.w3.org/TR/2001/REC-SVG-20010904/DTD/svg10.dtd">
<svg version="1.0" xmlns="http://www.w3.org/2000/svg"
 width="512.000000pt" height="512.000000pt" viewBox="0 0 512.000000 512.000000"
 preserveAspectRatio="xMidYMid meet">
<metadata>
Created by potrace 1.14, written by Peter Selinger 2001-2017
</metadata>
<g transform="translate(0.000000,512.000000) scale(0.100000,-0.100000)"
fill="#000000" stroke="none">
<path d="M685 5103 c-338 -72 -596 -330 -668 -668 -14 -61 -15 -305 -14 -1900
l2 -1830 22 -72 c95 -306 299 -511 603 -605 l75 -23 1815 -2 c1212 -2 1836 0
1878 7 349 57 619 312 701 661 20 82 20 124 20 1889 -1 1564 -3 1814 -16 1875
-68 319 -291 557 -614 657 l-74 23 -1830 2 c-1596 1 -1839 0 -1900 -14z"/>
</g>
</svg>
