<svg width="90" height="80" viewBox="0 0 90 80" fill="none" xmlns="http://www.w3.org/2000/svg">
<path fill-rule="evenodd" clip-rule="evenodd" d="M44.9979 10C26.4433 10 11.3979 23.4333 11.3979 40C11.3979 56.5667 26.4433 70 44.9979 70C48.0966 70 50.5979 67.7667 50.5979 65C50.5979 63.7 50.0379 62.5333 49.1419 61.6333C48.2833 60.7667 47.7233 59.6 47.7233 58.3333C47.7233 55.5667 50.2246 53.3333 53.3233 53.3333H59.9313C70.2353 53.3333 78.5979 45.8667 78.5979 36.6667C78.5979 21.9333 63.5526 10 44.9979 10ZM24.4589 40C21.3602 40 18.8589 37.7667 18.8589 35C18.8589 32.2333 21.3602 30 24.4589 30C27.5575 30 30.0589 32.2333 30.0589 35C30.0589 37.7667 27.5575 40 24.4589 40ZM35.6698 26.6667C32.5711 26.6667 30.0698 24.4333 30.0698 21.6667C30.0698 18.9 32.5711 16.6667 35.6698 16.6667C38.7685 16.6667 41.2698 18.9 41.2698 21.6667C41.2698 24.4333 38.7685 26.6667 35.6698 26.6667ZM54.3286 26.6667C51.23 26.6667 48.7286 24.4333 48.7286 21.6667C48.7286 18.9 51.23 16.6667 54.3286 16.6667C57.4273 16.6667 59.9286 18.9 59.9286 21.6667C59.9286 24.4333 57.4273 26.6667 54.3286 26.6667ZM65.5266 40C62.4279 40 59.9266 37.7667 59.9266 35C59.9266 32.2333 62.4279 30 65.5266 30C68.6252 30 71.1266 32.2333 71.1266 35C71.1266 37.7667 68.6252 40 65.5266 40Z" fill="#002EA3"/>
</svg>
