<svg width="24" height="24" viewBox="0 0 24 24" fill="none" xmlns="http://www.w3.org/2000/svg">
<path d="M16.25 3H8.75C6.68225 3 5 4.68225 5 6.75V17.25C5 19.3177 6.68225 21 8.75 21H16.25C18.3177 21 20 19.3177 20 17.25V6.75C20 4.68225 18.3177 3 16.25 3ZM11.75 15C11.336 15 11 15.3352 11 15.75H9.5C9.5 15.3352 9.164 15 8.75 15C8.336 15 8 15.3352 8 15.75H6.5V12.75H8C8 13.1648 8.336 13.5 8.75 13.5C9.164 13.5 9.5 13.1648 9.5 12.75H11C11 13.1648 11.336 13.5 11.75 13.5C12.164 13.5 12.5 13.1648 12.5 12.75H15.5C15.5 13.1648 15.836 13.5 16.25 13.5C16.664 13.5 17 13.1648 17 12.75H18.5V15.75H12.5C12.5 15.3352 12.164 15 11.75 15ZM8.75 9C9.164 9 9.5 8.66475 9.5 8.25H11C11 8.66475 11.336 9 11.75 9C12.164 9 12.5 8.66475 12.5 8.25H15.5C15.5 8.66475 15.836 9 16.25 9C16.664 9 17 8.66475 17 8.25H18.5V11.25H17C17 10.8352 16.664 10.5 16.25 10.5C15.836 10.5 15.5 10.8352 15.5 11.25H12.5C12.5 10.8352 12.164 10.5 11.75 10.5C11.336 10.5 11 10.8352 11 11.25H9.5C9.5 10.8352 9.164 10.5 8.75 10.5C8.336 10.5 8 10.8352 8 11.25H6.5V8.25H8C8 8.66475 8.336 9 8.75 9ZM8.75 4.5H16.25C17.4905 4.5 18.5 5.5095 18.5 6.75H17C17 6.33525 16.664 6 16.25 6C15.836 6 15.5 6.33525 15.5 6.75H12.5C12.5 6.33525 12.164 6 11.75 6C11.336 6 11 6.33525 11 6.75H9.5C9.5 6.33525 9.164 6 8.75 6C8.336 6 8 6.33525 8 6.75H6.5C6.5 5.5095 7.5095 4.5 8.75 4.5ZM16.25 19.5H8.75C7.5095 19.5 6.5 18.4905 6.5 17.25H8C8 17.6648 8.336 18 8.75 18C9.164 18 9.5 17.6648 9.5 17.25H11C11 17.6648 11.336 18 11.75 18C12.164 18 12.5 17.6648 12.5 17.25H18.5C18.5 18.4905 17.4905 19.5 16.25 19.5Z" fill="#D2D1D1"/>
</svg>
