<svg width="25" height="24" viewBox="0 0 25 24" fill="none" xmlns="http://www.w3.org/2000/svg">
<g clip-path="url(#clip0_4710_50132)">
<path d="M23.0119 6.42C22.8931 5.94541 22.6511 5.51057 22.3105 5.15941C21.9699 4.80824 21.5426 4.55318 21.0719 4.42C19.3519 4 12.4719 4 12.4719 4C12.4719 4 5.59185 4 3.87185 4.46C3.4011 4.59318 2.97383 4.84824 2.6332 5.19941C2.29257 5.55057 2.05064 5.98541 1.93185 6.46C1.61707 8.20556 1.46309 9.97631 1.47185 11.75C1.46063 13.537 1.61462 15.3213 1.93185 17.08C2.06281 17.5398 2.31016 17.9581 2.65 18.2945C2.98984 18.6308 3.41068 18.8738 3.87185 19C5.59185 19.46 12.4719 19.46 12.4719 19.46C12.4719 19.46 19.3519 19.46 21.0719 19C21.5426 18.8668 21.9699 18.6118 22.3105 18.2606C22.6511 17.9094 22.8931 17.4746 23.0119 17C23.3242 15.2676 23.4782 13.5103 23.4719 11.75C23.4831 9.96295 23.3291 8.1787 23.0119 6.42Z" stroke="#AFB0B6" stroke-width="1.5" stroke-linecap="round" stroke-linejoin="round"/>
<path d="M10.2219 15.02L15.9719 11.75L10.2219 8.48V15.02Z" stroke="#AFB0B6" stroke-width="1.5" stroke-linecap="round" stroke-linejoin="round"/>
</g>
<defs>
<clipPath id="clip0_4710_50132">
<rect width="24" height="24" fill="white" transform="translate(0.471863)"/>
</clipPath>
</defs>
</svg>
